<?xml version="1.0" encoding="iso-8859-1"?>
<!-- Generator: Adobe Illustrator 19.0.0, SVG Export Plug-In . SVG Version: 6.00 Build 0)  -->
<svg version="1.1" id="Capa_1" xmlns="http://www.w3.org/2000/svg" xmlns:xlink="http://www.w3.org/1999/xlink" x="0px" y="0px"
	 viewBox="0 0 512 512" style="enable-background:new 0 0 512 512;" xml:space="preserve">
<path style="fill:#3E4347;" d="M385.28,512H126.72c-13.248,0-24-10.736-24-24V24c0-13.248,10.752-24,24-24h258.56
	c13.248,0,24,10.752,24,24v464C409.28,501.264,398.544,512,385.28,512z"/>
<rect x="126.736" y="62.144" style="fill:#FFD93B;" width="258.56" height="365.28"/>
<g>
	<circle style="fill:#5A5F63;" cx="256" cy="469.712" r="23.04"/>
	<path style="fill:#5A5F63;" d="M311.744,37.872H242.64c-3.744,0-6.8-3.04-6.8-6.8s3.04-6.8,6.8-6.8h69.104
		c3.744,0,6.8,3.04,6.8,6.8C318.544,34.832,315.488,37.872,311.744,37.872z"/>
	<path style="fill:#5A5F63;" d="M213.12,37.872h-12.864c-3.744,0-6.8-3.04-6.8-6.8s3.04-6.8,6.8-6.8h12.864
		c3.744,0,6.8,3.04,6.8,6.8S216.864,37.872,213.12,37.872z"/>
</g>
<path style="fill:#E24B4B;" d="M256,108.208c-48.08,0-87.056,38.976-87.056,87.056c0,48.096,87.056,167.76,87.056,167.76
	s87.056-119.664,87.056-167.744C343.056,147.184,304.08,108.208,256,108.208z M256,232.672c-20.656,0-37.408-16.752-37.408-37.408
	s16.752-37.392,37.408-37.392s37.408,16.752,37.408,37.408S276.656,232.672,256,232.672z"/>
<g>
</g>
<g>
</g>
<g>
</g>
<g>
</g>
<g>
</g>
<g>
</g>
<g>
</g>
<g>
</g>
<g>
</g>
<g>
</g>
<g>
</g>
<g>
</g>
<g>
</g>
<g>
</g>
<g>
</g>
</svg>
