<?xml version="1.0" encoding="iso-8859-1"?>
<!-- Generator: Adobe Illustrator 19.0.0, SVG Export Plug-In . SVG Version: 6.00 Build 0)  -->
<svg version="1.1" id="Capa_1" xmlns="http://www.w3.org/2000/svg" xmlns:xlink="http://www.w3.org/1999/xlink" x="0px" y="0px"
	 viewBox="0 0 512 512" style="enable-background:new 0 0 512 512;" xml:space="preserve">
<path style="fill:#3E4347;" d="M256,512c-109.584,0-226.064-23.68-226.064-67.552S146.416,376.896,256,376.896
	s226.064,23.68,226.064,67.552S365.584,512,256,512z M256,392.656c-130.288,0-210.304,30.176-210.304,51.792
	c0,21.632,80.016,51.792,210.304,51.792s210.304-30.176,210.304-51.792C466.304,422.832,386.288,392.656,256,392.656z"/>
<ellipse style="fill:#8CC63E;" cx="256" cy="444.448" rx="118.576" ry="32.432"/>
<path style="fill:#E14B4B;" d="M255.28,0c-80.432,0-145.728,65.296-145.728,145.888c0,103.936,145.728,298.56,145.728,298.56
	s145.888-194.624,145.888-298.56C401.168,65.296,335.872,0,255.28,0z"/>
<circle style="fill:#FFFFFF;" cx="255.36" cy="148.256" r="76"/>
<path style="fill:#FFD83B;" d="M294.8,132.752h-24.864l-7.68-23.648c-2.016-6.208-10.816-6.208-12.832,0l-7.68,23.648H216.88
	c-6.528,0-9.248,8.368-3.968,12.192l20.112,14.608l-7.68,23.648c-2.016,6.208,5.088,11.376,10.384,7.536l20.112-14.608
	l20.112,14.608c5.28,3.84,12.4-1.328,10.384-7.536l-7.68-23.648l20.112-14.608C304.048,141.12,301.344,132.752,294.8,132.752z"/>
<g>
</g>
<g>
</g>
<g>
</g>
<g>
</g>
<g>
</g>
<g>
</g>
<g>
</g>
<g>
</g>
<g>
</g>
<g>
</g>
<g>
</g>
<g>
</g>
<g>
</g>
<g>
</g>
<g>
</g>
</svg>
