<?xml version="1.0" encoding="iso-8859-1"?>
<!-- Generator: Adobe Illustrator 19.0.0, SVG Export Plug-In . SVG Version: 6.00 Build 0)  -->
<svg version="1.1" id="Capa_1" xmlns="http://www.w3.org/2000/svg" xmlns:xlink="http://www.w3.org/1999/xlink" x="0px" y="0px"
	 viewBox="0 0 512 512" style="enable-background:new 0 0 512 512;" xml:space="preserve">
<ellipse style="fill:#65B1EF;" cx="256.002" cy="256" rx="255.998" ry="255.998"/>
<path style="fill:#59A5E0;" d="M437.023,437.024c-99.984,99.968-262.064,99.968-362.032,0c-11.6-11.6-21.856-24.048-30.784-37.12
	c99.632,67.856,236.544,57.6,324.912-30.784c88.384-88.368,98.624-225.28,30.784-324.912c13.088,8.912,25.52,19.168,37.12,30.768
	C536.991,174.96,536.991,337.04,437.023,437.024z"/>
<g>
	<path style="fill:#E9EFF4;" d="M407.151,300.064c0.8,1.68-0.032,2.592-1.52,3.28c-1.552,0.72-2.784,0.8-3.808-0.896
		c-2.528-4.16-2.224-7.696,1.44-10.432C404.655,294.88,405.919,297.472,407.151,300.064z"/>
	<path style="fill:#E9EFF4;" d="M25.199,261.984c-2.672-1.024-5.632-2.176-9.312-3.584c5.376-0.896,5.664-1.44,3.264-4.832
		c3.856-1.648,10.288,0.304,13.12,3.936C29.839,259.04,27.519,260.512,25.199,261.984z"/>
	<path style="fill:#E9EFF4;" d="M130.063,93.584c0.112,0.272,0.224,0.544,0.336,0.816c-3.024,1.824-6.032,3.632-9.056,5.456
		c-0.224-0.224-0.48-0.448-0.704-0.688c0.544-1.168,1.104-2.352,1.728-3.68c-0.816,0.112-1.6,0.208-2.544,0.336
		c-0.32-0.848-0.64-1.696-0.992-2.672c-2.64,0.688-3.264,2.352-2.72,4.688c0.976,4.256-0.112,7.104-3.296,9.328
		c-1.28-1.088-2.448-2.08-4.224-3.584c-0.192,2.192-0.32,3.584-0.48,5.328c-1.216-0.992-2.128-1.76-3.072-2.48
		c-0.96-0.752-1.968-1.456-2.928-2.176c2.496-6.944-4.144-5.104-7.008-6.976c1.264-2.592,3.28-3.088,5.488-2.416
		c3.216,0.976,5.584,0.864,7.536-2.544c1.088-1.904,3.568-2.992,5.28-4.592c2.192-2.048,2.128-2.96,0.416-4.64
		c0.24-2.272,0.448-4.192,0.608-5.664c-3.856-0.512-7.184-0.832-10.464-1.44c-2.064-0.384-2.384-2.192-2.32-3.984
		c0.144-3.44,2.768-6.752,6.352-7.84c2.24-0.672,4.56-1.04,6.848-1.536c-2.912,3.248-7.536,4.784-8.176,9.872
		c4.064-4.88,8.64-8.736,16.08-8.752c-2.352,2.176-4.256,3.92-6.336,5.84c1.92,1.392,3.184,2.048,4.8,0.064
		c1.472-1.824,3.296-1.072,5.6,2.096c-0.4,0.336-0.784,0.688-1.216,1.024s-0.88,0.64-2.176,1.568
		c2.064,0.56,3.392,0.912,4.832,1.312c-0.224,0.512-0.528,1.232-0.656,1.52c0.768,1.2,1.36,2.144,1.744,2.736
		c-0.928,1.504-1.712,2.8-2.496,4.112c0.16,0.144,0.336,0.288,0.512,0.432c-0.816,0.112-1.744,0.032-2.432,0.384
		c-1.296,0.688-2.16,1.968-0.72,3.056c1.424,1.056,3.456,1.392,2.016,3.888c-0.176,0.304,0.656,1.168,1.056,1.808H130.063z"/>
	<path style="fill:#E9EFF4;" d="M100.719,49.472c3.088-0.4,6.192-0.8,9.552-1.232c-1.36,4.512-4.976,6.432-9.648,5.248
		c0.896-0.624,1.472-1.024,2.08-1.456c-0.752-0.624-1.376-1.136-1.984-1.648V49.472z"/>
	<path style="fill:#E9EFF4;" d="M82.351,165.952c1.36-0.656,2.72-1.312,4.064-1.968c0.256,0.224,0.512,0.448,0.784,0.688
		c-0.768,1.056-1.36,2.336-2.352,3.056c-0.448,0.32-1.712-0.464-2.608-0.736C82.287,166.64,82.319,166.288,82.351,165.952z"/>
	<path style="fill:#E9EFF4;" d="M323.999,359.952c1.248,4,2.512,8.016,3.968,12.656c-1.696-0.576-2.512-0.848-3.104-1.04
		c-2.096,8.848-4.176,17.568-6.32,26.576c-2.24,0.704-4.704,1.488-7.152,2.256c-3.376-5.392-3.344-10.576,0.336-15.456
		c1.28-1.696,1.28-2.96,0.384-4.832c-0.8-1.664-1.024-3.68-1.12-5.552c-0.112-2.224,1.2-3.216,3.44-3.648
		c1.216-0.24,2.48-1.424,3.248-2.528c1.92-2.736,3.584-5.648,5.344-8.496C323.343,359.904,323.663,359.92,323.999,359.952z"/>
	<path style="fill:#E9EFF4;" d="M476.399,259.744c-1.664,1.216-3.088,2.416-4.688,3.328c-0.544,0.304-1.52-0.176-2.304-0.288
		c0.176-0.752,0.112-1.696,0.56-2.24C472.143,257.856,474.271,257.488,476.399,259.744z"/>
	<path style="fill:#E9EFF4;" d="M162.079,106.256c-2.8,2.64-5.776,5.088-8.416,7.872c-1.776,1.856-3.056,4.16-4.576,6.256
		c-1.2,1.648-3.856,1.888-4.8,1.424c-0.816-0.4-1.056-1.968-1.712-3.392c-3.648,0.384-4.944,0.528-4.096-5.008
		c0.896-5.824,1.504-5.952,4.416-11.936c-0.048-0.064-0.416-0.528-0.72-0.912c0.56-1.408,2.944-1.52,2.048-3.808
		c-0.144-0.352,2.48-1.76,4.048-2.848c-0.128-0.192-0.48-0.768-1.104-1.744c5.472-2.912,9.76-3.824,6.272-8.624
		c6.352-1.408,4.608-0.72,5.44-4.848c-1.92,0.208-3.296,0.352-5.488,0.592c3.792-5.44,5.44-0.912,7.072-11.344
		c0.768-4.896,0.16-5.712-4.64-6.592c-2.016-0.368-4-0.848-6.208-1.312c0.128-1.008,0.256-2.176,0.432-3.536h5.184
		c-5.568-8.016,1.088-6.304,10.88-8.56c1.072-0.256,3.04-0.256,2.368-2.48c-0.384-1.28,19.28-4.368,20.848-4.144
		c-0.208,2.72,1.696,3.184,3.536,2.352c2.896-1.312,4.832-0.784,6.368,2.416c0.544-1.712,0.944-2.96,1.376-4.288
		c1.328,0.352,2.48,0.656,3.904,1.04c-0.48-1.056-0.848-1.84-1.232-2.72c5.104-0.448,10-1.024,14.928-1.248
		c1.552-0.064,3.152,0.8,4.72,1.248c-0.064,0.272-0.144,0.528-0.208,0.8c-3.312,0.16-6.624,0.32-9.936,0.48
		c0.016,0.352,0.032,0.704,0.032,1.056h11.856c-0.064,0.288-0.144,0.592-0.192,0.896c1.792,0.688,3.584,1.392,6.048,2.352
		c-5.392,2.864-10.352-2.064-15.216,1.088c3.424,0.912,6.704,1.792,10.176,2.72c-0.768,0.464-1.504,0.896-2.256,1.344
		c0.032,0.128,0.064,0.256,0.096,0.368c3.328-0.848,8.384-2.464,11.808-1.968c1.072,0.16,2,1.328,2.992,2.064
		c-0.128,0.368-0.24,0.752-0.368,1.12c-2.752,0.4-5.52,0.816-8.336,1.216c0,0,0.272,0.448,0.704,1.184
		c-1.312,0.16-2.48,0.304-3.936,0.48c0.432,0.608,0.8,1.104,0.96,1.328c-2.672,3.696-5.248,7.28-7.84,10.88
		c0.224,0.112,0.448,0.24,0.656,0.352c-1.584,0.08-3.152,0.16-4,0.192c-0.88,3.024-1.552,5.392-2.304,7.984
		c-0.576-0.112-1.696-0.336-2.848-0.576c0.064,4.48,0.064,4.48-4.08,4.96c-0.144-0.608-0.304-1.216-0.608-2.416
		c-1.568,1.136-3.296,1.856-4.224,3.152c-1.808,2.496,0.672,3.296,2.64,4.272c-0.768,1.472-1.44,2.736-2.32,4.416
		c-1.52-1.776-2.736-3.2-4.08-4.784c-1.744,1.84-3.2,3.392-5.024,5.328c2.88,0.512,4.88,0.864,6.944,1.232
		c-3.168,5.04-10.864,7.712-16.24,5.6c-1.728-0.672-2.704-0.464-3.808,1.024c-0.864,1.152-2.096,2.128-3.344,2.88
		c-2.144,1.296-4.432,2.336-6.768,3.536C168.703,103.632,163.951,104.496,162.079,106.256z"/>
	<path style="fill:#E9EFF4;" d="M143.135,482.256c0.224,0.784,0.416,1.552,0.656,2.416c2.176-0.56,1.824-2.112,1.84-3.616
		c0.016-2.32,0.24-4.624,0.336-6.944c0.064-1.568,0.352-3.184,0.096-4.704c-0.992-6,4.096-14.832,9.968-16.32
		c2.72-0.704,3.968-2.144,4.64-4.592c0.24-0.896,0.752-1.728,1.104-2.592c1.856-4.544,2.848-9.36,1.584-14.08
		c-1.68-6.288,0.048-11.824,3.216-16.864c3.504-5.552,4.08-11.184,2.448-17.28c-0.176-0.656-0.672-1.536-1.216-1.728
		c-3.872-1.312-6.592-4.176-9.728-6.56c-1.776-1.36-4.528-1.664-6.912-1.968c-1.984-0.24-4.048,0.192-5.888,0.32
		c-3.728-8.4-11.584-6.24-18.416-7.808c0.256-0.4,0.832-0.432,1.136-0.736c3.216-3.168,3.504-4.64,1.456-8.736
		c-1.104-2.176-2.752-4.096-3.728-6.32c-1.584-3.6-4.448-4.736-8.016-5.28c-1.968-0.304-4.272-0.864-5.632-2.128
		c-3.408-3.216-6.576-6.752-9.424-10.48c-1.76-2.288-3.456-3.216-6.384-2.832c-4.624,0.608-8.992-0.272-12.464-3.824
		c-0.56-0.576-1.312-0.944-2.144-1.504c-1.648,3.424-3.152,6.576-4.848,10.08c-1.184-4.064,1.328-7.024,2.4-10.272
		c-6.144-0.544-10.48,2.288-12.528,7.696c-0.608,1.632-1.936,3.008-3.024,4.656c-0.56-0.608-0.72-0.832-0.912-1.008
		c-2.32-2.288-4.352-4.88-8.384-2.816c-2.256,1.152-5.552-0.592-6.112-3.104c-0.464-2.08-0.192-4.432,0.24-6.56
		c0.512-2.464,1.696-4.784,2.32-7.232c0.816-3.296-0.176-5.072-3.424-6c-2.512-0.72-5.136-1.04-7.728-1.536
		c0-0.88-0.208-1.888,0.048-2.752c0.464-1.664,0.96-3.376,1.84-4.832c2.16-3.536,4.544-6.944,7.056-10.72
		c-5.728-0.672-9.936-0.08-12.864,4.624c-1.12,1.808-3.2,3.2-5.12,4.304c-2.976,1.68-5.968,0.544-7.648-2.464
		c-3.12-5.648-1.04-17.136,3.6-21.584c1.2-1.152,1.616-3.184,2.224-4.864c0.528-1.472,0.416-3.312,1.264-4.496
		c3.12-4.304,9.76-6.032,14.752-4.16c2.08,0.768,4.16,1.52,6.432,2.336c0.256-1.136,0.4-1.856,0.56-2.576
		c0.688-3.04,3.856-4.304,6.176-2.272c1.392,1.2,2.208,3.024,4.592,2.336c0.736-0.208,2.208,2.144,1.008,5.376
		c-1.6,4.352,0.16,8.192,1.984,12.32c1.552-1.888,3.12-3.824,3.696-6c5.408-20.464-1.392-14.144,20.016-28.368
		c1.424-4.304,2.4-7.328,3.52-10.832c0.864,0.512,1.968,1.168,3.472,2.08c1.6-2.24,3.44-4.608,5.04-7.104
		c2.784-4.384,6.944,0.224,5.728-4.752c6.96,1.584,7.744-9.088,16.528-9.472c1.04-0.048,2.016-0.96,3.072-1.216
		c0.88-0.208,1.872-0.048,2.8-0.048c0.016,0.304,0.016,0.608,0.032,0.896c-1.2,1.248-2.384,2.496-3.568,3.744
		c0.144,0.256,0.288,0.512,0.432,0.768c4.208-1.408,10.528-2.832,13.296-5.92c-6.8-4.512-4.656-0.944-4.656-9.28
		c1.568-0.752,3.184-1.536,4.816-2.304c-0.128-0.272-0.256-0.56-0.384-0.832c-5.904-1.184-10.912,2.208-16.544,3.92
		c7.424-5.744,14.496-11.936,23.888-8.592c8.464,3.008,25.344-7.536,15.392-11.44c4.768-4.624-4.912-4.992-0.736-10.144
		c3.424-4.224,2.992-9.072,2.64-14.128c-6.912,4.256-6.592,9.952-11.92,4.144c1.648-2.544,3.264-5.024,4.864-7.504
		c-0.336-0.032-0.656-0.08-0.992-0.112c-0.048-0.288-0.944-5.408-1.216-5.504c-7.824-2.544-10.416-4.688-13.424,3.056
		c-2.08,5.36-6.016,3.648-6.512,8.592c-0.672,6.544-1.2,7.008-7.392,8.688c-8.016,2.16-6.112,6.08-10.096,13.088
		c-0.928,1.664-2.16,3.6-4.624,2.688c-4.704-1.76,1.52-9.392,4.256-13.536c-2.336-1.872-5.376-3.088-6.048-5.088
		c-1.152-3.472-2.272-6.112-5.568-6.08c0-1.872-0.448-7.584,1.024-8.624c11.328-8.048,14.48-11.232,27.072-14.368
		c4.944-1.232,4.992-1.04,4.192-5.024c1.984-0.192,4.208,0.112,5.92-0.688c7.12-3.328,9.856,3.2,14.624-4.928
		c0.592-1.008,1.52-1.92,2.48-2.592c4.928-3.504-2.608-7.44-5.056-2.704c-1.776,3.408-5.168,3.936-8.496,5.152
		c0.384-2.96,5.36-3.312,3.568-7.424c-1.52,0.944-2.816,1.744-4.112,2.56c-0.24-0.176-0.48-0.352-0.736-0.528
		c1.104-1.76,1.776-4.288,3.36-5.136c3.392-1.824,4.56-4.16,2.704-7.712c-19.936,9.632,2.928,2.608-16.912,15.104
		c-1.36,0.864-3.072,1.168-4.624,1.728c-0.128-0.272-0.256-0.528-0.384-0.784c1.04-1.264,2.064-2.528,3.472-4.256
		c-10.08,0-4.672,2.288-15.248-6.176c0.08,3.696-1.68,5.136-6.032,5.984c-2.432-1.872-4.624-3.568-6.112-4.704
		c0.256-1.888,1.056-3.68,0.48-4.384c-2.128-2.64-3.872-5.968-7.088-6.24c-3.344-5.504-8.016-2.8-12.032-3.392
		c1.36-0.352,2.72-0.704,3.904-1.008h-16.08c-1.056-1.424-2.112-4.016-4.048-5.184c-9.6-5.872-1.104-3.008-10.672-9.552
		c-0.304,0.16-0.832,0.448-1.664,0.88c0.384-2.144-0.032-3.472-4.352-3.936c-11.84,15.072-21.76,31.184-29.76,47.968
		c0.08,0.032,0.16,0.064,0.224,0.112c-0.224,2.512-0.416,4.88-0.624,7.2c2.096-0.128,3.536-0.208,5.792-0.336
		c-3.872,5.152-4.96,10.832-7.008,16.112c-1.744,4.48-3.488,8.832-6.192,12.816c-0.416,0.608,0.208,2.672,0.944,3.168
		c1.6,1.072,1.792,2.192,1.296,3.824c-0.272,0.88-0.448,1.824-0.432,2.736c0.016,3.536-1.92,6.256-5.36,7.344
		c0.24-0.992,0.464-1.984,0.704-2.992c-0.24-0.176-0.496-0.352-0.736-0.512c-0.976,0.752-2.128,1.376-2.896,2.288
		c-1.728,2.048-3.424,4.112-5.136,6.192c-7.552,36.528-7.056,74.384,1.472,110.752c3.024,2.272,6.08,4.512,9.184,6.672
		c1.184,0.816,3.056,1.12,4.512,0.912c2.784-0.416,4.448,0.656,6.32,2.608c2.8,2.944,6.176,5.36,9.232,8.096
		c1.264,1.12,2.8,2.272,3.376,3.744c1.12,2.864,1.664,5.952,2.24,8.128c1.408,0.784,2.352,1.168,3.104,1.792
		c3.216,2.656,6.368,5.392,9.168,7.776c0.896-1.6,1.248-3.168,2.192-3.744c1.84-1.12,2.56,0.864,3.376,2
		c4.48,6.272,4.304,7.536-0.304,13.856c-1.776,2.448-3.472,5.264-4.112,8.144c-1.584,7.04-2.416,14.24-3.76,21.328
		c-0.512,2.656,0.176,4.544,2.096,6.272c3.248,2.944,5.792,6.224,6.88,10.704c2.352,9.616,6.672,17.968,16.368,22.304
		c1.36,0.608,2.704,1.424,3.808,2.416c1.712,1.552,3.92,3.072,4.656,5.072c0.688,1.856,1.36,3.728,2.016,5.616
		c16.96,14.912,35.408,27.216,54.848,36.88c0.064-1.024,0.224-2.064,0.288-3.088C142.575,482.224,142.863,482.24,143.135,482.256z"
		/>
	<path style="fill:#E9EFF4;" d="M138.991,55.072c-2.368,0-4.816,1.952-6.688-1.184c-0.224-0.384-1.392-0.256-2.128-0.32
		c-2.128-0.192-4.256-0.368-6.4-0.56c-0.096-0.256-0.208-0.528-0.304-0.784c2.4-1.44,4.816-2.896,7.232-4.336
		c1.296,1.008,2.416,2,3.664,2.784c0.304,0.192,1.024-0.256,1.552-0.4c-0.192-0.4-0.432-0.768-0.56-1.184
		c-0.256-0.912-0.48-1.824-0.672-2.608c2.352-1.136,6.112,1.824,6.96-2.752c1.36-1.168,2.736-2.352,4.288-3.696
		c0.624,1.056,1.12,1.888,1.728,2.912c4.704-3.232,9.856-3.104,15.136-2c0.096-0.272,0.176-0.56,0.272-0.832
		c-1.04-0.432-2.064-1.152-3.136-1.232c-2.128-0.192-4.336-0.256-6.448,0.032c-2.416,0.336-4.624-1.76-7.152-0.336
		c-0.448,0.256-1.68-0.864-3.088-1.664c1.504-1.008,2.592-1.744,3.776-2.544c-0.304-0.512-0.672-1.136-1.056-1.776h10.176
		c1.248,2.4,2.816,3.104,5.072,1.104c0.432-0.384,1.216-0.56,1.808-0.496c3.12,0.304,6.288,0.448,9.312,1.168
		c2.8,0.656,5.488,1.872,8.144,3.024c0.64,0.272,0.944,1.296,1.664,2.368h-8.672c0.128,0.288,0.256,0.576,0.368,0.864
		c-7.056,4.8-14.992,5.456-24.144,7.36c0.112,0.272,0.336,0.784,0.912,2.096c-4.208,0.976-8.272,1.936-12.4,2.928
		C138.255,53.12,138.575,53.952,138.991,55.072z"/>
	<path style="fill:#E9EFF4;" d="M101.583,153.392c-0.144,0.832,0.032,2.32,0.544,2.592c3.264,1.664,2.048,4.912,2.752,7.44
		c0.72,2.656-5.184,1.84-7.68,0.576c-2.112-1.072-3.872-2.848-5.984-4.464c3.824-2.512,4.88-9.12,11.92-8.704
		C102.495,151.824,101.743,152.56,101.583,153.392z"/>
	<path style="fill:#E9EFF4;" d="M96.111,65.12c-0.144-0.16-0.272-0.32-0.416-0.48c2.576-1.92,4.992-4.112,7.776-5.616
		c0.976-0.528,2.896,0.592,4.32,1.152c0.208,0.08,0.16,1.312-0.08,1.872c-0.176,0.4-0.848,0.752-1.36,0.88
		C102.943,63.696,99.519,64.384,96.111,65.12z"/>
	<path style="fill:#E9EFF4;" d="M449.439,351.328c4.608,6.992,7.568,14.624,7.296,22.992c-0.272,7.808-2.512,15.152-7.872,21.296
		c-2.656,3.04-4.96,6.384-7.36,9.648c-3.76,5.104-9.104,8.096-14.528,10.928c-0.736,0.384-2.032-0.064-2.96-0.416
		c-1.296-0.48-2.496-1.808-3.696-1.76c-4.64,0.224-5.664-3.248-7.024-6.384c-0.656-1.52-1.536-3.136-1.568-4.704
		c-0.032-1.808,0.768-3.632,1.328-5.872c-1.92,0.736-3.872,1.488-5.936,2.272c-0.224-1.024-0.48-2.384-0.784-3.728
		c-0.928-4.08-4.4-6.528-8.608-5.552c-5.744,1.344-11.392,3.088-17.088,4.64c-2.256,0.608-4.56,1.072-6.816,1.696
		c-1.792,0.496-3.536,1.168-5.312,1.68c-1.344,0.384-3.456,1.376-3.968,0.848c-1.408-1.424-3.376-3.856-2.976-5.264
		c2.064-7.056,0.512-14.048,0.416-21.056c-0.016-0.832,0.112-1.68,0.288-2.496c0.656-3.184,1.488-6.352,1.984-9.552
		c0.368-2.384,0.992-4.192,3.84-4.24c0.608-0.016,1.264-0.352,1.84-0.64c4.608-2.336,9.248-4.592,13.744-7.12
		c1.568-0.896,3.04-2.288,4.064-3.792c3.952-5.824,9.488-9.856,14.688-13.808c1.696,1.312,3.04,2.368,4.4,3.408
		c0.848-1.408,2.016-2.72,2.464-4.24c0.736-2.464,2.88-2.72,4.624-3.696c1.248-0.704,2.368-1.664,3.776-2.672
		c2.8,1.072,6.096,2.352,9.712,3.744c-0.816,1.104-1.552,2.144-2.336,3.136c-2.464,3.12-2.416,6.048,0.56,8.688
		c2.304,2.032,4.944,3.68,7.952,5.872c1.264-4.304,2.56-8.016,3.392-11.84c0.832-3.744,1.968-7.2,5.6-9.968
		c0.256,2.416,0.672,4.832,0.704,7.264c0.016,1.904,0.512,3.12,2.288,4.08c0.992,0.528,2.064,1.808,2.192,2.864
		c0.464,3.536,0.464,7.12,0.768,10.672C448.591,349.296,448.879,350.464,449.439,351.328z"/>
	<path style="fill:#E9EFF4;" d="M499.279,181.856c0.16-0.56,0.688-1.184,1.28-1.6c-11.392-36.896-31.312-71.712-59.76-101.376
		h-1.568c-0.112,1.376-0.176,2.336-0.336,4.16c-2.16-1.44-4.336-2.176-5.376-3.696c-3.216-4.688-7.76-5.456-12.8-5.344
		c-1.04,3.792-2.064,4.208-5.888,2.896c-1.456-0.496-3.104-0.544-4.688-0.592c-2.992-0.08-5.984-0.016-7.696-0.016
		c-2.528,2.432-4.288,4.128-6.064,5.84c-0.24-0.224-0.48-0.448-0.736-0.656c1.2-2.416,2.704-4.72,3.472-7.264
		c0.656-2.128,1.392-5.216,0.384-6.608c-0.96-1.312-4.384-1.696-6.368-1.136c-2.96,0.832-5.216-1.28-7.904-0.912
		c-0.144,0.016-0.336-0.368-0.528-0.544c-0.496-0.416-1.216-1.296-1.504-1.168c-0.784,0.336-2.016,1.168-1.952,1.648
		c0.368,2.432-1.232,4.208-1.696,6.32c-3.856-1.888-7.072-0.128-10.144,2.032c-2.256,1.584-5.568,2.832-2.528,6.432
		c-2.016,0.512-3.76,0.896-5.456,1.408c-2.112,0.64-2.16,1.808-0.688,3.264c1.392,1.392,2.96,2.672,4.096,4.24
		c0.816,1.12,1.056,2.656,1.568,4c-0.24,0.08-0.48,0.16-0.72,0.224c-3.808-6.048-4.304-6.272-9.888-4.448
		c-0.128,0.736-0.272,1.488-0.56,3.072c-1.28-2.352-2.176-4.016-3.12-5.792c-1.488,2.72-1.984,5.2-0.176,7.776
		c0.464,0.672,0.72,1.584,0.784,2.4c0.128,1.712,1.136,2.512,2.608,2.16c3.776-0.864,5.296,1.728,7.584,4.736
		c-2.432-1.168-4.144-1.984-5.872-2.832c-1.232,3.056-2.4,6-3.584,8.96c-1.728-0.288-3.328-0.544-4.912-0.8
		c0.64-0.816,1.36-1.36,2.08-1.344c2.288,0.032,2.496-1.232,2.048-2.944c-1.472-5.648-2.848-11.312-4.592-16.864
		c-0.32-1.024-2.16-2-3.392-2.16c-0.736-0.096-1.936,1.328-2.464,2.32c-0.592,1.12-0.448,2.64-1.008,3.792
		c-1.36,2.752-0.464,4.816,1.44,6.864c1.008,1.088,1.744,2.448,2.608,3.68c-2.352-0.496-4.192-1.36-6.016-2.256
		c-3.2-1.584-4.672-1.104-6.544,1.856c-0.352,0.496-1.664,0.992-2.144,0.752c-2.192-1.12-4.176-1.152-6.288,0.144
		c-0.336,0.208-1.152-0.272-1.696-0.528c-0.432-0.192-0.768-0.752-1.152-0.768c-2.64-0.096-7.664,3.744-8.512,6.128
		c-0.192,0.56-1.472,1.28-1.888,1.088c-0.976-0.432-1.728-1.36-2.32-1.872c0.784-1.12,1.232-1.776,1.696-2.416
		c-1.152-0.528-2.32-1.072-4-1.84c0.24,1.616,0.4,2.416,0.496,3.232c0.528,4.432,0.32,4.752-3.84,6.336
		c-2.032,0.768-3.84,1.712-3.344,4.528c-1.648-0.336-2.992-0.592-4.624-0.912v2.96c-0.32,0.128-0.64,0.272-0.976,0.4
		c-2.144-3.536-4.288-7.056-6.416-10.592c0.24-0.224,0.48-0.464,0.72-0.688c2.352,1.136,4.752,2.176,7.008,3.472
		c1.376,0.784,2.368,0.592,3.04-0.656c0.816-1.52,2.416-3.936,1.888-4.656c-2.08-2.832-4.624-5.392-8.544-5.952
		c-2.624-0.368-5.184-1.232-7.904-1.904c0.56-1.088,0.848-1.648,1.152-2.256c-4.352-2.384-8.384-1.888-12.368,0.608
		c-1.008,0.624-2.176,1.344-3.28,1.376c-4.688,0.16-7.792,2.944-10.464,6.24c-3.744,4.64-7.184,9.584-10.944,14.272
		c-0.944,1.184-2.528,1.904-3.92,2.672c-1.472,0.816-3.136,1.296-4.576,2.176c-0.736,0.432-1.44,1.328-1.632,2.144
		c-0.64,2.72-1.088,5.488-1.488,8.24c-0.16,1.136-0.448,2.976,0.096,3.344c0.976,0.64,2.592,0.736,3.824,0.48
		c1.856-0.384,3.6-1.264,5.056-1.808c1.296,4.304,2.496,8.288,3.696,12.288c0.368,0.128,0.752,0.24,1.12,0.368
		c1.856-2.48,3.824-4.896,5.504-7.488c1.216-1.872,2.256-3.936,2.992-6.048c0.72-2.064,1.392-4.32,1.312-6.448
		c-0.112-3.008,0.48-5.552,2.368-7.856c1.376-1.664,2.688-3.392,4.048-5.088c1.584-1.984,3.696-2.608,6.56-2.464
		c-0.72,1.232-1.312,2.16-1.792,3.152c-1.408,2.96-3.184,5.824-4.016,8.944c-1.184,4.368,2.464,7.568,6.832,6.48
		c0.736-0.192,1.52-0.16,2.224-0.4c2.816-0.992,4.144,0.496,5.408,3.52c-2.768,0-5.248,0.464-7.456-0.112
		c-2.864-0.752-3.84,0.416-4.272,2.784s-1.248,4.272-3.856,5.04c-0.592,0.176-1.12,1.2-1.328,1.92
		c-0.4,1.424-0.56,2.944-0.768,4.144c-1.648,0.944-3.296,2.736-4.544,2.48c-3.92-0.784-6.944,0.912-10.192,2.4
		c-2.624,1.216-4.336,0.528-5.472-2.112c-0.544-1.28-0.848-2.672-1.168-4.048c-0.352-1.424-0.592-2.864-0.896-4.336
		c-3.168,0.816-4.304,2.864-4.608,5.616c-0.416,3.888-2.288,6.4-6.432,7.056c-1.12,0.176-2.352,1.2-3.072,2.16
		c-3.744,5.024-8.704,8.224-14.608,10.096c-2.464,0.768-4.96,1.424-7.584,2.176c0.32,0.608,0.512,1.04,0.784,1.408
		c1.312,1.712,2.864,3.296,3.904,5.152c0.688,1.232,1.152,3.008,0.848,4.336c-1.504,6.336-1.808,6.368-8.224,5.504
		c-3.584-0.496-7.264-1.248-10.784,0.848c1.328,3.232-0.048,5.936-1.632,8.544c-2.176,3.6-2.944,7.424-2.288,11.712
		c0.848,0,1.6-0.064,2.304,0.016c0.816,0.096,1.76,0.128,2.4,0.544c5.888,3.824,13.872,1.216,16.016-5.424
		c0.832-2.576,2.24-4.48,4.56-5.808c2.736-1.584,5.008-3.6,6.272-6.624c0.288-0.704,1.472-1.712,1.92-1.568
		c3.152,1.04,5.728-0.4,8.32-1.712c2.064-1.056,3.472-0.4,4.864,1.312c1.888,2.336,3.824,4.672,6.048,6.656
		c2.864,2.544,5.728,4.944,5.088,9.52c0.304,0.016,0.592,0.016,0.896,0.032c0.896-1.52,1.792-3.04,2.864-4.848
		c0.4-0.112,1.264-0.336,2.416-0.64c-1.888-2.256-3.216-5.168-5.408-6.16c-2.944-1.344-3.6-3.824-5.12-5.968
		c-1.504-2.112-1.056-3.68,0.592-5.536c0.528,0.88,0.96,1.568,1.376,2.256c0.848-0.256,1.584-0.48,2.464-0.736
		c0.208,3.328,2.512,4.832,4.592,6.64c1.152,1.008,2.416,2.608,2.496,4c0.288,4.928,2.112,8.88,6.24,11.744
		c-2.592,3.024,0.656,3.84,1.232,5.328c1.664-1.712,3.136-3.248,4.576-4.736c-2.544-1.36-3.536-3.552-2.944-7.216
		c0.976,0.304,1.936,0.608,2.976,0.928c0.112-0.688,0.24-1.376,0.352-2.032c2.64-0.176,5.072-0.304,7.52-0.48
		c2.288-0.16,3.232-1.44,2.736-3.616c-1.216-5.52,2.08-9.52,4.672-13.712c0.304-0.512,1.616-0.896,2.16-0.656
		c1.008,0.448,2.432,1.28,2.592,2.144c0.896,4.816,2.096,5.536,6.144,3.28c0.384-0.224,0.8-0.4,1.712-0.848
		c-1.472-1.072-2.624-1.92-3.792-2.752c2.144-2.784,4.448-3.184,7.344-1.232c-1.904,3.456-1.84,4.288,1.216,7.216
		c1.632,1.552,3.52,2.832,5.2,4.336c2.016,1.776,1.84,3.296-0.432,4.72c-3.552,2.208-6.56,1.792-9.744-1.024
		c-1.008-0.896-2.768-2.048-3.696-1.712c-6.336,2.224-12.528,4.816-18.48,7.168c0.128,1.904,0.288,3.2,0.288,4.496
		c0,4.656,4.24,8.016,8.784,7.008c0.704-0.16,1.616-0.24,2.192,0.08c2.576,1.392,4.864,0.72,7.152-0.672
		c0.528-0.32,1.2-0.368,2.8-0.816c-1.344,5.28-2.384,10-3.76,14.608c-0.608,2.064-2.32,2.832-4.528,1.984
		c-2.064-0.784-3.952-0.88-5.552,1.184c-0.4,0.528-1.872,0.672-2.656,0.432c-3.664-1.184-7.28-2.544-10.88-3.888
		c-3.68-1.392-7.152-1.312-10.416,1.168c-1.616,1.232-3.392,2.272-5.152,3.424c-5.856-3.328-9.232-10.08-16.736-10.544
		c0.416-0.848,0.512-1.12,0.672-1.344c3.072-4.688,1.088-8.896-4.496-9.264c-2.32-0.16-4.72,0.016-7.008,0.496
		c-9.152,1.904-18.032,5.68-26.72,3.504c-3.424,3.696-6.368,6.8-9.184,10.032c-0.816,0.928-1.712,2.24-1.68,3.344
		c0.144,4.112-2.448,5.904-5.472,7.776c-2.832,1.76-5.888,3.648-7.84,6.24c-3.264,4.32-5.696,9.264-8.56,13.888
		c-1.232,2-2.192,3.904-0.528,6.176c0.336,0.448,0.384,1.264,0.304,1.856c-0.816,6.224-1.664,12.432-2.576,18.624
		c-0.368,2.576-0.64,5.024,2.016,6.704c0.48,0.304,0.64,1.12,0.896,1.728c3.44,8.112,8.352,15.088,15.408,20.496
		c2.048,1.568,3.888,2.656,6.512,0.864c1.312-0.912,3.168-1.488,4.784-1.456c4.624,0.08,8.8-1.216,13.088-2.848
		c2.992-1.136,6.688-2.528,9.584,0.304c2.448,2.416,4.864,3.968,8.528,3.92c3.04-0.032,4.128,3.296,2.672,5.968
		c-0.72,1.312-0.768,3.12-0.752,4.704c0.016,1.456,1.136,3.136,0.672,4.288c-0.736,1.824-0.24,3.12,0.592,4.464
		c1.424,2.32,3.056,4.512,4.448,6.848c1.296,2.16,2.688,4.336,3.472,6.704c1.488,4.544,2.496,9.248,3.824,13.856
		c0.496,1.696,0.256,2.816-1.328,3.792c-0.88,0.544-1.888,1.536-2.048,2.464c-1.392,7.744-1.328,15.2,3.12,22.304
		c2.144,3.408,3.024,7.616,4.496,11.44c1.376,3.552,2.56,7.216,4.208,10.64c2.352,4.88,5.664,9.344,5.568,15.152
		c-0.112,5.856,1.072,7.2,6.816,6.432c4.288-0.576,8.72-0.848,12.768-2.992c7.824-4.16,12.912-10.208,14.192-19.12
		c0.32-2.224,0.272-4.496,0.384-6.704c8.32-2.16,8.928-4.224,4.96-15.536c1.904-1.904,3.632-3.664,5.392-5.376
		c1.264-1.248,2.368-2.832,3.872-3.584c3.776-1.904,5.472-5.008,5.28-8.912c-0.208-4.176-0.848-8.384-1.76-12.48
		c-1.296-5.808-2.896-11.568-0.512-17.44c2.32-5.744,5.472-10.944,10.448-14.816c3.92-3.056,7.168-6.688,9.216-11.232
		c2.192-4.88,4.256-9.824,6.256-14.8c0.976-2.432,1.664-4.992,2.64-7.968c-2.032,0.64-3.344,1.184-4.72,1.456
		c-4.128,0.832-8.272,1.664-12.432,2.272c-1.824,0.272-3.104-0.528-2.8-2.784c0.368-2.816-1.312-4.736-3.36-6.112
		c-3.248-2.192-4.784-5.408-6.24-8.816c-0.88-2.048-2.144-3.936-3.136-5.952c-0.864-1.744-1.728-3.504-2.4-5.328
		c-1.648-4.48-3.088-9.04-4.768-13.52c-1.584-4.256-3.344-8.448-5.008-12.688c-0.08-0.208,0.112-0.512,0.368-1.456
		c1.2,2.624,2.624,1.696,4.016,0.592c0.288,0.864,0.512,1.472,0.72,2.096c1.696,5.184,3.104,10.496,7.6,14.208
		c0.608,0.512,0.72,1.632,1.04,2.496c0.96,2.496,1.552,5.216,2.928,7.456c2.784,4.528,5.136,9.104,6.272,14.384
		c0.48,2.176,1.904,4.256,3.248,6.128c1.424,1.984,3.392,2.48,5.968,1.616c8.048-2.72,15.184-6.976,21.856-12.112
		c2.832-2.176,5.664-4.352,6.336-8.272c0.16-0.928,1.024-1.76,1.696-2.544c3.216-3.728,2.464-7.6-2.064-9.344
		c-2.192-0.848-3.424-2.096-3.68-4.416c-0.08-0.816-0.432-1.584-0.816-2.944c-1.344,1.168-2.72,1.92-3.472,3.088
		c-2.24,3.392-3.456,3.968-7.792,2.896c-0.064-1.456-0.128-2.928-0.208-4.688c-0.896,0.448-1.552,0.768-1.76,0.88
		c-1.744-2.864-3.408-5.44-4.896-8.128c-0.656-1.2-1.344-2.608-1.28-3.888c0.064-1.152,1.12-2.256,1.744-3.392
		c0.928,0.784,2.064,1.424,2.704,2.384c0.864,1.296,0.976,3.504,2.08,4.144c3.024,1.728,6.368,2.928,9.664,4.176
		c1.536,0.592,3.744,0.304,4.736,1.312c2.736,2.784,5.92,3.344,9.52,3.248c2.624-0.064,5.296-0.192,7.888,0.176
		c2.432,0.352,5.056,0.848,7.056,2.128c2.24,1.424,3.888,3.776,5.728,5.808c0.304,0.32,0.08,1.072,0.288,1.552
		c0.528,1.216,0.976,2.576,1.856,3.504c0.4,0.432,1.856,0.288,2.592-0.08c1.536-0.736,2.896-1.792,4.608-2.88
		c1.52,15.392,8.928,28.24,13.872,41.904c3.568-1.296,5.68-3.232,6.096-6.736c0.352-2.864,0.784-5.728,1.424-8.528
		c0.64-2.784,1.152-5.744,2.528-8.176c1.44-2.56,3.936-4.512,5.776-6.88c1.76-2.288,3.872-4.56,4.752-7.2
		c1.376-4.064,3.648-6.192,7.872-6.96c2.272-0.416,3.504,0,4.672,1.824c0.672,1.056,1.664,2.48,2.672,2.624
		c2.768,0.416,3.856,2.256,4.496,4.464c0.64,2.256,0.704,4.656,1.376,6.896c0.384,1.312,1.456,2.432,2.224,3.632
		c1.088-0.72,2.208-1.408,3.248-2.192c0.416-0.32,0.688-0.816,1.056-1.28c3.712,6.448,4.352,9.376,4.592,19.824
		c0.064,3.264-0.56,6.432,2.96,9.024c2.08,1.536,2.848,4.96,4,7.632c1.968,4.528,4.88,8.304,8.544,11.728
		c1.616-6.368-1.296-13.264-6.992-16.96c-0.704-0.448-1.712-0.896-1.904-1.536c-1.712-6-4.24-12.016-0.16-18.448
		c3.648,4.464,10.528,5.984,11.408,13.696c2.768-2.608,5.456-4.8,7.728-7.344c3.872-4.368,3.888-8.576,0.432-13.296
		c-2.784-3.792-5.616-7.568-8.336-11.392c-0.48-0.672-0.88-1.712-0.72-2.448c0.896-3.84,2.544-5.088,6.384-5.552
		c7.904-0.96,15.008-3.376,19.104-10.976c0.704-1.296,1.76-2.448,2.224-3.824c1.168-3.328,1.76-6.896,3.184-10.096
		c1.248-2.816,0.88-4.832-1.296-6.752c-1.456-1.264-2.912-2.544-4.72-4.128c1.648-0.56,2.48-0.832,3.504-1.184
		c-1.232-1.168-2.288-2.096-3.264-3.104c-3.168-3.28-6.128-6.48-4.256-11.808c0.88-2.496-1.984-4.144-4.848-3.296
		c-1.072,0.32-3.168,0.352-3.376-0.128c-0.64-1.408-1.264-3.52-0.608-4.624c1.184-2.016,3.28-3.504,5.36-5.568
		c0.656,3.136,1.12,5.376,1.568,7.616c2.56-1.392,4.848-2.64,6.208-3.376c2.432,2.272,4.128,3.808,5.728,5.424
		c0.464,0.48,0.688,1.248,0.928,1.92c0.24,0.704,0.128,1.904,0.544,2.112c2.608,1.296,2.784,3.68,2.8,6.128
		c6.72-1.392,8.352-6.16,3.92-11.04c-1.232-1.36-2.848-2.464-4.464-3.376c-1.472-0.848-1.92-1.664-1.44-3.376
		C498.047,187.92,498.447,184.816,499.279,181.856z"/>
</g>
<g>
	<path style="fill:#DEE4E9;" d="M440.815,78.864h-1.568c-0.112,1.376-0.176,2.336-0.336,4.16c-2.16-1.44-4.336-2.176-5.376-3.696
		c-3.216-4.688-7.76-5.456-12.8-5.344c-0.496,1.824-0.992,2.848-1.792,3.296c27.52,57.328,32.448,122.768,14.8,183.008
		c0.352,0.608,0.624,1.296,0.832,2.032c0.64,2.256,0.704,4.656,1.376,6.896c0.384,1.312,1.456,2.432,2.224,3.632
		c1.088-0.72,2.208-1.408,3.248-2.192c0.416-0.32,0.688-0.816,1.056-1.28c3.712,6.448,4.352,9.376,4.592,19.824
		c0.064,3.264-0.56,6.432,2.96,9.024c2.08,1.536,2.848,4.96,4,7.632c1.968,4.528,4.88,8.304,8.544,11.728
		c1.616-6.368-1.296-13.264-6.992-16.96c-0.704-0.448-1.712-0.896-1.904-1.536c-1.712-6-4.24-12.016-0.16-18.448
		c3.648,4.464,10.528,5.984,11.408,13.696c2.768-2.608,5.456-4.8,7.728-7.344c3.872-4.368,3.888-8.576,0.432-13.296
		c-2.784-3.792-5.616-7.568-8.336-11.392c-0.48-0.672-0.88-1.712-0.72-2.448c0.896-3.84,2.544-5.088,6.384-5.552
		c7.904-0.96,15.008-3.376,19.104-10.976c0.704-1.296,1.76-2.448,2.224-3.824c1.168-3.328,1.76-6.896,3.184-10.096
		c1.248-2.816,0.88-4.832-1.296-6.752c-1.456-1.264-2.912-2.544-4.72-4.128c1.648-0.56,2.48-0.832,3.504-1.184
		c-1.232-1.168-2.288-2.096-3.264-3.104c-3.168-3.28-6.128-6.48-4.256-11.808c0.88-2.496-1.984-4.144-4.848-3.296
		c-1.072,0.32-3.168,0.352-3.376-0.128c-0.64-1.408-1.264-3.52-0.608-4.624c1.184-2.016,3.28-3.504,5.36-5.568
		c0.656,3.136,1.12,5.376,1.568,7.616c2.56-1.392,4.848-2.64,6.208-3.376c2.432,2.272,4.128,3.808,5.728,5.424
		c0.464,0.48,0.688,1.248,0.928,1.92c0.24,0.704,0.128,1.904,0.544,2.112c2.608,1.296,2.784,3.68,2.8,6.128
		c6.72-1.392,8.352-6.16,3.92-11.04c-1.232-1.36-2.848-2.464-4.464-3.376c-1.472-0.848-1.92-1.664-1.44-3.376
		c0.816-2.976,1.216-6.08,2.048-9.056c0.16-0.56,0.688-1.184,1.28-1.6l0,0C489.183,143.36,469.263,108.528,440.815,78.864
		L440.815,78.864z"/>
	<path style="fill:#DEE4E9;" d="M361.535,393.648c-0.4,1.408,1.552,3.84,2.976,5.264c0.528,0.512,2.624-0.464,3.968-0.848
		c1.792-0.512,3.52-1.184,5.312-1.68c2.256-0.624,4.56-1.088,6.816-1.696c5.696-1.536,11.344-3.296,17.088-4.64
		c4.224-0.992,7.696,1.456,8.608,5.552c0.304,1.344,0.56,2.72,0.784,3.728c2.064-0.784,4.016-1.536,5.936-2.272
		c-0.544,2.24-1.36,4.064-1.328,5.872c0.016,1.568,0.896,3.184,1.568,4.704c1.36,3.136,2.384,6.608,7.024,6.384
		c1.2-0.048,2.416,1.28,3.696,1.76c0.928,0.352,2.24,0.8,2.96,0.416c5.44-2.832,10.768-5.824,14.528-10.928
		c2.4-3.264,4.704-6.608,7.36-9.648c5.376-6.128,7.616-13.488,7.872-21.296c0.288-8.368-2.688-16-7.296-22.992
		c-0.576-0.864-0.864-2.032-0.944-3.072c-0.304-3.552-0.304-7.136-0.768-10.672c-0.128-1.056-1.2-2.336-2.192-2.864
		c-1.76-0.96-2.272-2.176-2.288-4.08c-0.016-2.416-0.448-4.832-0.704-7.264c-3.616,2.784-4.768,6.24-5.6,9.968
		c-0.848,3.808-2.144,7.52-3.392,11.84c-3.008-2.192-5.648-3.84-7.952-5.872c-2.976-2.64-3.024-5.568-0.56-8.688
		c0.784-0.992,1.52-2.032,2.336-3.136c-3.616-1.392-6.912-2.656-9.712-3.744c-1.408,1.008-2.528,1.968-3.776,2.672
		c-1.76,0.976-3.904,1.248-4.624,3.696c-0.464,1.52-1.616,2.832-2.464,4.24c-1.344-1.056-2.704-2.096-4.4-3.408
		c-1.232,0.944-2.496,1.888-3.744,2.864c-8.624,12.432-18.464,24.256-29.536,35.328c-2.304,2.304-4.656,4.56-7.04,6.752
		C362.447,381.792,363.279,387.696,361.535,393.648z"/>
</g>
<g style="opacity:0.2;">
	
		<ellipse transform="matrix(-0.7071 -0.7071 0.7071 -0.7071 145.1125 350.3476)" style="fill:#FFFFFF;" cx="145.116" cy="145.12" rx="48.992" ry="90.591"/>
</g>
<g style="opacity:0.2;">
	<path style="fill:#FFFFFF;" d="M279.055,279.056c-71.664,71.664-175.232,91.952-264.96,60.88
		C-16.977,250.192,3.327,146.64,74.991,74.976c71.648-71.648,175.232-91.952,264.96-60.88
		C371.023,103.84,350.719,207.392,279.055,279.056z"/>
</g>
<path id="SVGCleanerId_0" style="fill:#E24B4B;" d="M433.135,0c-43.552,0-78.88,35.328-78.88,78.88
	c0,43.648,78.88,138.976,78.88,138.976s78.864-95.344,78.864-138.976C511.999,35.328,476.687,0,433.135,0z M433.135,110.016
	c-17.2,0-31.152-13.952-31.152-31.072c0-17.2,13.952-31.232,31.152-31.232s31.152,14.032,31.152,31.232
	C464.271,96.064,450.319,110.016,433.135,110.016z"/>
<g>
	<path id="SVGCleanerId_0_1_" style="fill:#E24B4B;" d="M433.135,0c-43.552,0-78.88,35.328-78.88,78.88
		c0,43.648,78.88,138.976,78.88,138.976s78.864-95.344,78.864-138.976C511.999,35.328,476.687,0,433.135,0z M433.135,110.016
		c-17.2,0-31.152-13.952-31.152-31.072c0-17.2,13.952-31.232,31.152-31.232s31.152,14.032,31.152,31.232
		C464.271,96.064,450.319,110.016,433.135,110.016z"/>
</g>
<path style="fill:#3E4347;" d="M473.551,78.944c0-22.336-18.112-40.448-40.448-40.448s-40.352,18.112-40.352,40.448
	c0,22.224,18.016,40.352,40.352,40.352C455.439,119.296,473.551,101.184,473.551,78.944z M433.135,100.544
	c-11.952,0-21.664-9.712-21.664-21.616c0-11.952,9.712-21.728,21.664-21.728s21.664,9.76,21.664,21.728
	C454.799,90.832,445.087,100.544,433.135,100.544z"/>
<path style="fill:#D03F3F;" d="M476.031,12.768c5.36,12.944,8.224,26.816,8.224,41.424c0,52.24-37.264,96.528-89.232,112.624
	c19.328,28.288,38.096,51.04,38.096,51.04s78.88-95.344,78.88-138.976C511.999,51.136,497.663,26.72,476.031,12.768z"/>
<g style="opacity:0.1;">
	<path style="fill:#FFFFFF;" d="M437.519,23.2c-1.808,4.64-16.688,4.016-29.664,11.536c-13.456,6.624-21.264,19.36-26.096,18.288
		c-5.152-0.416-3.584-23.024,17.568-34.416C420.543,7.36,440.063,18.688,437.519,23.2z"/>
</g>
<path style="opacity:0.15;fill:#FFFFFF;enable-background:new    ;" d="M433.135,100.512c-11.936,0-21.632-9.712-21.632-21.552
	c0-12.016,9.712-21.728,21.632-21.728c9.808,0,18.032,6.624,20.672,15.648c5.664-13.952,8.848-29.168,8.848-45.136
	c0-7.808-0.8-15.408-2.224-22.784C451.903,1.808,442.735,0,433.135,0c-43.552,0-78.88,35.328-78.88,78.88
	c0,16.4,11.136,40.08,25.024,63.264c23.92-7.696,44.48-22.736,59.248-42.4C436.783,100.192,435.007,100.512,433.135,100.512z"/>
<path id="SVGCleanerId_1" style="fill:#E24B4B;" d="M145.119,257.872c-27.392,0-49.6,22.208-49.6,49.6
	c0,27.44,49.6,87.392,49.6,87.392s49.6-59.952,49.6-87.392C194.719,280.096,172.511,257.872,145.119,257.872z M145.119,327.056
	c-10.816,0-19.584-8.768-19.584-19.536c0-10.816,8.768-19.632,19.584-19.632s19.584,8.816,19.584,19.632
	C164.719,318.288,155.935,327.056,145.119,327.056z"/>
<g>
	<path id="SVGCleanerId_1_1_" style="fill:#E24B4B;" d="M145.119,257.872c-27.392,0-49.6,22.208-49.6,49.6
		c0,27.44,49.6,87.392,49.6,87.392s49.6-59.952,49.6-87.392C194.719,280.096,172.511,257.872,145.119,257.872z M145.119,327.056
		c-10.816,0-19.584-8.768-19.584-19.536c0-10.816,8.768-19.632,19.584-19.632s19.584,8.816,19.584,19.632
		C164.719,318.288,155.935,327.056,145.119,327.056z"/>
</g>
<path style="fill:#3E4347;" d="M170.543,307.52c0-14.048-11.392-25.44-25.44-25.44s-25.376,11.392-25.376,25.44
	c0,13.984,11.328,25.376,25.376,25.376C159.151,332.896,170.543,321.504,170.543,307.52z M145.135,321.104
	c-7.52,0-13.616-6.096-13.616-13.584c0-7.52,6.096-13.664,13.616-13.664s13.616,6.144,13.616,13.664
	C158.751,315.008,152.655,321.104,145.135,321.104z"/>
<path style="fill:#D03F3F;" d="M172.095,265.904c3.376,8.144,5.184,16.864,5.184,26.048c0,32.848-23.44,60.704-56.112,70.816
	c12.16,17.792,23.952,32.096,23.952,32.096s49.6-59.952,49.6-87.392C194.719,290.032,185.711,274.688,172.095,265.904z"/>
<g style="opacity:0.1;">
	<path style="fill:#FFFFFF;" d="M147.887,272.48c-1.136,2.912-10.496,2.528-18.656,7.248c-8.464,4.16-13.36,12.176-16.416,11.488
		c-3.232-0.256-2.256-14.48,11.056-21.632C137.215,262.496,149.487,269.632,147.887,272.48z"/>
</g>
<path style="opacity:0.15;fill:#FFFFFF;enable-background:new    ;" d="M145.119,321.088c-7.504,0-13.6-6.112-13.6-13.552
	c0-7.552,6.112-13.664,13.6-13.664c6.176,0,11.344,4.16,12.992,9.84c3.552-8.768,5.568-18.336,5.568-28.384
	c0-4.896-0.512-9.68-1.392-14.336c-5.36-1.984-11.12-3.12-17.168-3.12c-27.392,0-49.6,22.208-49.6,49.6
	c0,10.304,6.992,25.2,15.744,39.776c15.04-4.848,27.968-14.288,37.248-26.656C147.423,320.88,146.303,321.088,145.119,321.088z"/>
<g>
</g>
<g>
</g>
<g>
</g>
<g>
</g>
<g>
</g>
<g>
</g>
<g>
</g>
<g>
</g>
<g>
</g>
<g>
</g>
<g>
</g>
<g>
</g>
<g>
</g>
<g>
</g>
<g>
</g>
</svg>
